<svg width="179" height="173" viewBox="0 0 179 173" fill="none" xmlns="http://www.w3.org/2000/svg">
<path d="M99.435 80.6616C100.427 80.6616 101.259 80.9976 101.931 81.6696C102.603 82.3416 102.939 83.1736 102.939 84.1656C102.939 85.1576 102.603 85.9896 101.931 86.6616C101.259 87.3336 100.427 87.6696 99.435 87.6696C98.475 87.6696 97.659 87.3336 96.987 86.6616C96.315 85.9896 95.979 85.1576 95.979 84.1656C95.979 83.1736 96.315 82.3416 96.987 81.6696C97.659 80.9976 98.475 80.6616 99.435 80.6616Z" fill="#B7ACAC"/>
<path d="M118.395 80.6616C119.387 80.6616 120.219 80.9976 120.891 81.6696C121.563 82.3416 121.899 83.1736 121.899 84.1656C121.899 85.1576 121.563 85.9896 120.891 86.6616C120.219 87.3336 119.387 87.6696 118.395 87.6696C117.435 87.6696 116.619 87.3336 115.947 86.6616C115.275 85.9896 114.939 85.1576 114.939 84.1656C114.939 83.1736 115.275 82.3416 115.947 81.6696C116.619 80.9976 117.435 80.6616 118.395 80.6616Z" fill="#B7ACAC"/>
<path d="M137.355 80.6616C138.347 80.6616 139.179 80.9976 139.851 81.6696C140.523 82.3416 140.859 83.1736 140.859 84.1656C140.859 85.1576 140.523 85.9896 139.851 86.6616C139.179 87.3336 138.347 87.6696 137.355 87.6696C136.395 87.6696 135.579 87.3336 134.907 86.6616C134.235 85.9896 133.899 85.1576 133.899 84.1656C133.899 83.1736 134.235 82.3416 134.907 81.6696C135.579 80.9976 136.395 80.6616 137.355 80.6616Z" fill="#B7ACAC"/>
<path d="M157.263 80.6617C158.255 80.6617 159.087 80.9977 159.759 81.6697C160.431 82.3417 160.767 83.1737 160.767 84.1657C160.767 85.1577 160.431 85.9897 159.759 86.6617C159.087 87.3337 158.255 87.6697 157.263 87.6697C156.303 87.6697 155.487 87.3337 154.815 86.6617C154.143 85.9897 153.807 85.1577 153.807 84.1657C153.807 83.1737 154.143 82.3417 154.815 81.6697C155.487 80.9977 156.303 80.6617 157.263 80.6617Z" fill="#B7ACAC"/>
<path d="M157.263 1.43127C158.255 1.43127 159.087 1.76727 159.759 2.43927C160.431 3.11127 160.767 3.94327 160.767 4.93527C160.767 5.92727 160.431 6.75927 159.759 7.43127C159.087 8.10327 158.255 8.43927 157.263 8.43927C156.303 8.43927 155.487 8.10327 154.815 7.43127C154.143 6.75927 153.807 5.92727 153.807 4.93527C153.807 3.94327 154.143 3.11127 154.815 2.43927C155.487 1.76727 156.303 1.43127 157.263 1.43127Z" fill="#B7ACAC"/>
<path d="M100.383 38.7081C101.375 38.7081 102.207 39.0441 102.879 39.7161C103.551 40.3881 103.887 41.2201 103.887 42.2121C103.887 43.2041 103.551 44.0361 102.879 44.7081C102.207 45.3801 101.375 45.7161 100.383 45.7161C99.4231 45.7161 98.6071 45.3801 97.9351 44.7081C97.2631 44.0361 96.9271 43.2041 96.9271 42.2121C96.9271 41.2201 97.2631 40.3881 97.9351 39.7161C98.6071 39.0441 99.4231 38.7081 100.383 38.7081Z" fill="#B7ACAC"/>
<path d="M99.435 0.568785C100.427 0.568785 101.259 0.904785 101.931 1.57679C102.603 2.24879 102.939 3.08079 102.939 4.07279C102.939 5.06479 102.603 5.89679 101.931 6.56879C101.259 7.24079 100.427 7.57679 99.435 7.57679C98.475 7.57679 97.659 7.24079 96.987 6.56879C96.315 5.89679 95.979 5.06479 95.979 4.07279C95.979 3.08079 96.315 2.24879 96.987 1.57679C97.659 0.904785 98.475 0.568785 99.435 0.568785Z" fill="#B7ACAC"/>
<path d="M136.407 40.6151C137.399 40.6151 138.231 40.9511 138.903 41.6231C139.575 42.2951 139.911 43.1271 139.911 44.1191C139.911 45.1111 139.575 45.9431 138.903 46.6151C138.231 47.2871 137.399 47.6231 136.407 47.6231C135.447 47.6231 134.631 47.2871 133.959 46.6151C133.287 45.9431 132.951 45.1111 132.951 44.1191C132.951 43.1271 133.287 42.2951 133.959 41.6231C134.631 40.9511 135.447 40.6151 136.407 40.6151Z" fill="#B7ACAC"/>
<path d="M137.355 2.47577C138.347 2.47577 139.179 2.81177 139.851 3.48377C140.523 4.15577 140.859 4.98777 140.859 5.97977C140.859 6.97177 140.523 7.80377 139.851 8.47577C139.179 9.14777 138.347 9.48377 137.355 9.48377C136.395 9.48377 135.579 9.14777 134.907 8.47577C134.235 7.80377 133.899 6.97177 133.899 5.97977C133.899 4.98777 134.235 4.15577 134.907 3.48377C135.579 2.81177 136.395 2.47577 137.355 2.47577Z" fill="#B7ACAC"/>
<path d="M118.395 40.6151C119.387 40.6151 120.219 40.9511 120.891 41.6231C121.563 42.2951 121.899 43.1271 121.899 44.1191C121.899 45.1111 121.563 45.9431 120.891 46.6151C120.219 47.2871 119.387 47.6231 118.395 47.6231C117.435 47.6231 116.619 47.2871 115.947 46.6151C115.275 45.9431 114.939 45.1111 114.939 44.1191C114.939 43.1271 115.275 42.2951 115.947 41.6231C116.619 40.9511 117.435 40.6151 118.395 40.6151Z" fill="#B7ACAC"/>
<path d="M118.395 0.568785C119.387 0.568785 120.219 0.904785 120.891 1.57679C121.563 2.24879 121.899 3.08079 121.899 4.07279C121.899 5.06479 121.563 5.89679 120.891 6.56879C120.219 7.24079 119.387 7.57679 118.395 7.57679C117.435 7.57679 116.619 7.24079 115.947 6.56879C115.275 5.89679 114.939 5.06479 114.939 4.07279C114.939 3.08079 115.275 2.24879 115.947 1.57679C116.619 0.904785 117.435 0.568785 118.395 0.568785Z" fill="#B7ACAC"/>
<path d="M79.527 2.47577C80.519 2.47577 81.351 2.81177 82.023 3.48377C82.695 4.15577 83.031 4.98777 83.031 5.97977C83.031 6.97177 82.695 7.80377 82.023 8.47577C81.351 9.14777 80.519 9.48377 79.527 9.48377C78.567 9.48377 77.751 9.14777 77.079 8.47577C76.407 7.80377 76.071 6.97177 76.071 5.97977C76.071 4.98777 76.407 4.15577 77.079 3.48377C77.751 2.81177 78.567 2.47577 79.527 2.47577Z" fill="#B7ACAC"/>
<path d="M118.395 119.664C119.387 119.664 120.219 120 120.891 120.672C121.563 121.344 121.899 122.176 121.899 123.168C121.899 124.16 121.563 124.992 120.891 125.664C120.219 126.336 119.387 126.672 118.395 126.672C117.435 126.672 116.619 126.336 115.947 125.664C115.275 124.992 114.939 124.16 114.939 123.168C114.939 122.176 115.275 121.344 115.947 120.672C116.619 120 117.435 119.664 118.395 119.664Z" fill="#B7ACAC"/>
<path d="M59.619 0.568785C60.611 0.568785 61.443 0.904785 62.115 1.57679C62.787 2.24879 63.123 3.08079 63.123 4.07279C63.123 5.06479 62.787 5.89679 62.115 6.56879C61.443 7.24079 60.611 7.57679 59.619 7.57679C58.659 7.57679 57.843 7.24079 57.171 6.56879C56.499 5.89679 56.163 5.06479 56.163 4.07279C56.163 3.08079 56.499 2.24879 57.171 1.57679C57.843 0.904785 58.659 0.568785 59.619 0.568785Z" fill="#B7ACAC"/>
<path d="M40.659 0.568785C41.651 0.568785 42.483 0.904785 43.155 1.57679C43.827 2.24879 44.163 3.08079 44.163 4.07279C44.163 5.06479 43.827 5.89679 43.155 6.56879C42.483 7.24079 41.651 7.57679 40.659 7.57679C39.699 7.57679 38.883 7.24079 38.211 6.56879C37.539 5.89679 37.203 5.06479 37.203 4.07279C37.203 3.08079 37.539 2.24879 38.211 1.57679C38.883 0.904785 39.699 0.568785 40.659 0.568785Z" fill="#B7ACAC"/>
<path d="M21.6989 0.568785C22.6909 0.568785 23.5229 0.904785 24.1949 1.57679C24.8669 2.24879 25.2029 3.08079 25.2029 4.07279C25.2029 5.06479 24.8669 5.89679 24.1949 6.56879C23.5229 7.24079 22.6909 7.57679 21.6989 7.57679C20.7389 7.57679 19.9229 7.24079 19.2509 6.56879C18.5789 5.89679 18.2429 5.06479 18.2429 4.07279C18.2429 3.08079 18.5789 2.24879 19.2509 1.57679C19.9229 0.904785 20.7389 0.568785 21.6989 0.568785Z" fill="#B7ACAC"/>
<path d="M79.3547 39.6163C80.3467 39.6163 81.1787 39.9523 81.8507 40.6243C82.5227 41.2963 82.8587 42.1283 82.8587 43.1203C82.8587 44.1123 82.5227 44.9443 81.8507 45.6163C81.1787 46.2883 80.3467 46.6243 79.3547 46.6243C78.3947 46.6243 77.5787 46.2883 76.9067 45.6163C76.2347 44.9443 75.8987 44.1123 75.8987 43.1203C75.8987 42.1283 76.2347 41.2963 76.9067 40.6243C77.5787 39.9523 78.3947 39.6163 79.3547 39.6163Z" fill="#B7ACAC"/>
<path d="M59.619 39.6163C60.611 39.6163 61.443 39.9523 62.115 40.6243C62.787 41.2963 63.123 42.1283 63.123 43.1203C63.123 44.1123 62.787 44.9443 62.115 45.6163C61.443 46.2883 60.611 46.6243 59.619 46.6243C58.659 46.6243 57.843 46.2883 57.171 45.6163C56.499 44.9443 56.163 44.1123 56.163 43.1203C56.163 42.1283 56.499 41.2963 57.171 40.6243C57.843 39.9523 58.659 39.6163 59.619 39.6163Z" fill="#B7ACAC"/>
<path d="M59.619 39.6163C60.611 39.6163 61.443 39.9523 62.115 40.6243C62.787 41.2963 63.123 42.1283 63.123 43.1203C63.123 44.1123 62.787 44.9443 62.115 45.6163C61.443 46.2883 60.611 46.6243 59.619 46.6243C58.659 46.6243 57.843 46.2883 57.171 45.6163C56.499 44.9443 56.163 44.1123 56.163 43.1203C56.163 42.1283 56.499 41.2963 57.171 40.6243C57.843 39.9523 58.659 39.6163 59.619 39.6163Z" fill="#B7ACAC"/>
<path d="M40.659 39.6163C41.651 39.6163 42.483 39.9523 43.155 40.6243C43.827 41.2963 44.163 42.1283 44.163 43.1203C44.163 44.1123 43.827 44.9443 43.155 45.6163C42.483 46.2883 41.651 46.6243 40.659 46.6243C39.699 46.6243 38.883 46.2883 38.211 45.6163C37.539 44.9443 37.203 44.1123 37.203 43.1203C37.203 42.1283 37.539 41.2963 38.211 40.6243C38.883 39.9523 39.699 39.6163 40.659 39.6163Z" fill="#B7ACAC"/>
<path d="M21.6989 39.6163C22.6909 39.6163 23.5229 39.9523 24.1949 40.6243C24.8669 41.2963 25.2029 42.1283 25.2029 43.1203C25.2029 44.1123 24.8669 44.9443 24.1949 45.6163C23.5229 46.2883 22.6909 46.6243 21.6989 46.6243C20.7389 46.6243 19.9229 46.2883 19.2509 45.6163C18.5789 44.9443 18.2429 44.1123 18.2429 43.1203C18.2429 42.1283 18.5789 41.2963 19.2509 40.6243C19.9229 39.9523 20.7389 39.6163 21.6989 39.6163Z" fill="#B7ACAC"/>
<path d="M79.3547 80.6163C80.3467 80.6163 81.1787 80.9523 81.8507 81.6243C82.5227 82.2963 82.8587 83.1283 82.8587 84.1203C82.8587 85.1123 82.5227 85.9443 81.8507 86.6163C81.1787 87.2883 80.3467 87.6243 79.3547 87.6243C78.3947 87.6243 77.5787 87.2883 76.9067 86.6163C76.2347 85.9443 75.8987 85.1123 75.8987 84.1203C75.8987 83.1283 76.2347 82.2963 76.9067 81.6243C77.5787 80.9523 78.3947 80.6163 79.3547 80.6163Z" fill="#B7ACAC"/>
<path d="M59.619 80.6163C60.611 80.6163 61.443 80.9523 62.115 81.6243C62.787 82.2963 63.123 83.1283 63.123 84.1203C63.123 85.1123 62.787 85.9443 62.115 86.6163C61.443 87.2883 60.611 87.6243 59.619 87.6243C58.659 87.6243 57.843 87.2883 57.171 86.6163C56.499 85.9443 56.163 85.1123 56.163 84.1203C56.163 83.1283 56.499 82.2963 57.171 81.6243C57.843 80.9523 58.659 80.6163 59.619 80.6163Z" fill="#B7ACAC"/>
<path d="M59.619 80.6163C60.611 80.6163 61.443 80.9523 62.115 81.6243C62.787 82.2963 63.123 83.1283 63.123 84.1203C63.123 85.1123 62.787 85.9443 62.115 86.6163C61.443 87.2883 60.611 87.6243 59.619 87.6243C58.659 87.6243 57.843 87.2883 57.171 86.6163C56.499 85.9443 56.163 85.1123 56.163 84.1203C56.163 83.1283 56.499 82.2963 57.171 81.6243C57.843 80.9523 58.659 80.6163 59.619 80.6163Z" fill="#B7ACAC"/>
<path d="M40.659 80.6163C41.651 80.6163 42.483 80.9523 43.155 81.6243C43.827 82.2963 44.163 83.1283 44.163 84.1203C44.163 85.1123 43.827 85.9443 43.155 86.6163C42.483 87.2883 41.651 87.6243 40.659 87.6243C39.699 87.6243 38.883 87.2883 38.211 86.6163C37.539 85.9443 37.203 85.1123 37.203 84.1203C37.203 83.1283 37.539 82.2963 38.211 81.6243C38.883 80.9523 39.699 80.6163 40.659 80.6163Z" fill="#B7ACAC"/>
<path d="M21.6989 80.6163C22.6909 80.6163 23.5229 80.9523 24.1949 81.6243C24.8669 82.2963 25.2029 83.1283 25.2029 84.1203C25.2029 85.1123 24.8669 85.9443 24.1949 86.6163C23.5229 87.2883 22.6909 87.6243 21.6989 87.6243C20.7389 87.6243 19.9229 87.2883 19.2509 86.6163C18.5789 85.9443 18.2429 85.1123 18.2429 84.1203C18.2429 83.1283 18.5789 82.2963 19.2509 81.6243C19.9229 80.9523 20.7389 80.6163 21.6989 80.6163Z" fill="#B7ACAC"/>
<path d="M79.527 118.801C80.519 118.801 81.351 119.137 82.023 119.809C82.695 120.481 83.031 121.313 83.031 122.305C83.031 123.297 82.695 124.129 82.023 124.801C81.351 125.473 80.519 125.809 79.527 125.809C78.567 125.809 77.751 125.473 77.079 124.801C76.407 124.129 76.071 123.297 76.071 122.305C76.071 121.313 76.407 120.481 77.079 119.809C77.751 119.137 78.567 118.801 79.527 118.801Z" fill="#B7ACAC"/>
<path d="M59.619 119.664C60.611 119.664 61.443 120 62.115 120.672C62.787 121.344 63.123 122.176 63.123 123.168C63.123 124.16 62.787 124.992 62.115 125.664C61.443 126.336 60.611 126.672 59.619 126.672C58.659 126.672 57.843 126.336 57.171 125.664C56.499 124.992 56.163 124.16 56.163 123.168C56.163 122.176 56.499 121.344 57.171 120.672C57.843 120 58.659 119.664 59.619 119.664Z" fill="#B7ACAC"/>
<path d="M59.619 119.664C60.611 119.664 61.443 120 62.115 120.672C62.787 121.344 63.123 122.176 63.123 123.168C63.123 124.16 62.787 124.992 62.115 125.664C61.443 126.336 60.611 126.672 59.619 126.672C58.659 126.672 57.843 126.336 57.171 125.664C56.499 124.992 56.163 124.16 56.163 123.168C56.163 122.176 56.499 121.344 57.171 120.672C57.843 120 58.659 119.664 59.619 119.664Z" fill="#B7ACAC"/>
<path d="M40.659 119.664C41.651 119.664 42.483 120 43.155 120.672C43.827 121.344 44.163 122.176 44.163 123.168C44.163 124.16 43.827 124.992 43.155 125.664C42.483 126.336 41.651 126.672 40.659 126.672C39.699 126.672 38.883 126.336 38.211 125.664C37.539 124.992 37.203 124.16 37.203 123.168C37.203 122.176 37.539 121.344 38.211 120.672C38.883 120 39.699 119.664 40.659 119.664Z" fill="#B7ACAC"/>
<path d="M21.6989 119.664C22.6909 119.664 23.5229 120 24.1949 120.672C24.8669 121.344 25.2029 122.176 25.2029 123.168C25.2029 124.16 24.8669 124.992 24.1949 125.664C23.5229 126.336 22.6909 126.672 21.6989 126.672C20.7389 126.672 19.9229 126.336 19.2509 125.664C18.5789 124.992 18.2429 124.16 18.2429 123.168C18.2429 122.176 18.5789 121.344 19.2509 120.672C19.9229 120 20.7389 119.664 21.6989 119.664Z" fill="#B7ACAC"/>
</svg>
