<svg width="160" height="264" viewBox="0 0 160 264" fill="none" xmlns="http://www.w3.org/2000/svg">
<path d="M104.966 32.0498C104.966 31.0578 105.302 30.2258 105.974 29.5538C106.646 28.8818 107.478 28.5458 108.47 28.5458C109.462 28.5458 110.294 28.8818 110.966 29.5538C111.638 30.2258 111.974 31.0578 111.974 32.0498C111.974 33.0098 111.638 33.8258 110.966 34.4978C110.294 35.1698 109.462 35.5058 108.47 35.5058C107.478 35.5058 106.646 35.1698 105.974 34.4978C105.302 33.8258 104.966 33.0098 104.966 32.0498Z" fill="white"/>
<path d="M35.3616 32.0498C35.3616 31.0578 35.6976 30.2258 36.3696 29.5538C37.0416 28.8818 37.8736 28.5458 38.8656 28.5458C39.8576 28.5458 40.6896 28.8818 41.3616 29.5538C42.0336 30.2258 42.3696 31.0578 42.3696 32.0498C42.3696 33.0098 42.0336 33.8258 41.3616 34.4978C40.6896 35.1698 39.8576 35.5058 38.8656 35.5058C37.8736 35.5058 37.0416 35.1698 36.3696 34.4978C35.6976 33.8258 35.3616 33.0098 35.3616 32.0498Z" fill="white"/>
<path d="M106.664 61.4114C106.664 60.4194 107 59.5874 107.672 58.9154C108.344 58.2434 109.176 57.9074 110.168 57.9074C111.16 57.9074 111.992 58.2434 112.664 58.9154C113.336 59.5874 113.672 60.4194 113.672 61.4114C113.672 62.3714 113.336 63.1874 112.664 63.8594C111.992 64.5314 111.16 64.8674 110.168 64.8674C109.176 64.8674 108.344 64.5314 107.672 63.8594C107 63.1874 106.664 62.3714 106.664 61.4114Z" fill="white"/>
<path d="M106.664 115.94C106.664 114.948 107 114.116 107.672 113.444C108.344 112.772 109.176 112.436 110.168 112.436C111.16 112.436 111.992 112.772 112.664 113.444C113.336 114.116 113.672 114.948 113.672 115.94C113.672 116.9 113.336 117.716 112.664 118.388C111.992 119.06 111.16 119.396 110.168 119.396C109.176 119.396 108.344 119.06 107.672 118.388C107 117.716 106.664 116.9 106.664 115.94Z" fill="white"/>
<path d="M71.9424 117.338C71.9424 116.346 72.2784 115.514 72.9504 114.842C73.6224 114.17 74.4544 113.834 75.4464 113.834C76.4384 113.834 77.2704 114.17 77.9424 114.842C78.6144 115.514 78.9504 116.346 78.9504 117.338C78.9504 118.298 78.6144 119.114 77.9424 119.786C77.2704 120.458 76.4384 120.794 75.4464 120.794C74.4544 120.794 73.6224 120.458 72.9504 119.786C72.2784 119.114 71.9424 118.298 71.9424 117.338Z" fill="white"/>
<path d="M71.9424 89.3747C71.9424 88.3827 72.2784 87.5507 72.9504 86.8787C73.6224 86.2067 74.4544 85.8707 75.4464 85.8707C76.4384 85.8707 77.2704 86.2067 77.9424 86.8787C78.6144 87.5507 78.9504 88.3827 78.9504 89.3747C78.9504 90.3347 78.6144 91.1507 77.9424 91.8227C77.2704 92.4947 76.4384 92.8307 75.4464 92.8307C74.4544 92.8307 73.6224 92.4947 72.9504 91.8227C72.2784 91.1507 71.9424 90.3347 71.9424 89.3747Z" fill="white"/>
<path d="M71.9424 61.4114C71.9424 60.4194 72.2784 59.5874 72.9504 58.9154C73.6224 58.2434 74.4544 57.9074 75.4464 57.9074C76.4384 57.9074 77.2704 58.2434 77.9424 58.9154C78.6144 59.5874 78.9504 60.4194 78.9504 61.4114C78.9504 62.3714 78.6144 63.1874 77.9424 63.8594C77.2704 64.5314 76.4384 64.8674 75.4464 64.8674C74.4544 64.8674 73.6224 64.5314 72.9504 63.8594C72.2784 63.1874 71.9424 62.3714 71.9424 61.4114Z" fill="white"/>
<path d="M71.9425 32.0498C71.9425 31.0578 72.2785 30.2258 72.9505 29.5538C73.6225 28.8818 74.4545 28.5458 75.4465 28.5458C76.4385 28.5458 77.2705 28.8818 77.9425 29.5538C78.6145 30.2258 78.9505 31.0578 78.9505 32.0498C78.9505 33.0098 78.6145 33.8258 77.9425 34.4978C77.2705 35.1698 76.4385 35.5058 75.4465 35.5058C74.4545 35.5058 73.6225 35.1698 72.9505 34.4978C72.2785 33.8258 71.9425 33.0098 71.9425 32.0498Z" fill="white"/>
<path d="M1.40822 32.0498C1.40822 31.0578 1.74422 30.2258 2.41622 29.5538C3.08822 28.8818 3.92022 28.5458 4.91222 28.5458C5.90422 28.5458 6.73622 28.8818 7.40822 29.5538C8.08023 30.2258 8.41623 31.0578 8.41623 32.0498C8.41623 33.0098 8.08023 33.8258 7.40822 34.4978C6.73622 35.1698 5.90422 35.5058 4.91222 35.5058C3.92022 35.5058 3.08822 35.1698 2.41622 34.4978C1.74422 33.8258 1.40822 33.0098 1.40822 32.0498Z" fill="white"/>
<path d="M34.5936 115.94C34.5936 114.948 34.9296 114.116 35.6016 113.444C36.2736 112.772 37.1056 112.436 38.0976 112.436C39.0896 112.436 39.9216 112.772 40.5936 113.444C41.2656 114.116 41.6016 114.948 41.6016 115.94C41.6016 116.9 41.2656 117.716 40.5936 118.388C39.9216 119.06 39.0896 119.396 38.0976 119.396C37.1056 119.396 36.2736 119.06 35.6016 118.388C34.9296 117.716 34.5936 116.9 34.5936 115.94Z" fill="white"/>
<path d="M0.640234 117.338C0.640234 116.346 0.976234 115.514 1.64823 114.842C2.32023 114.17 3.15223 113.834 4.14423 113.834C5.13623 113.834 5.96823 114.17 6.64023 114.842C7.31223 115.514 7.64824 116.346 7.64824 117.338C7.64824 118.298 7.31223 119.114 6.64023 119.786C5.96823 120.458 5.13623 120.794 4.14423 120.794C3.15223 120.794 2.32023 120.458 1.64823 119.786C0.976234 119.114 0.640234 118.298 0.640234 117.338Z" fill="white"/>
<path d="M36.2913 62.8095C36.2913 61.8175 36.6273 60.9855 37.2993 60.3135C37.9713 59.6415 38.8033 59.3055 39.7953 59.3055C40.7873 59.3055 41.6193 59.6415 42.2913 60.3135C42.9633 60.9855 43.2993 61.8175 43.2993 62.8095C43.2993 63.7695 42.9633 64.5855 42.2913 65.2575C41.6193 65.9295 40.7873 66.2655 39.7953 66.2655C38.8033 66.2655 37.9713 65.9295 37.2993 65.2575C36.6273 64.5855 36.2913 63.7695 36.2913 62.8095Z" fill="white"/>
<path d="M2.33797 61.4114C2.33797 60.4194 2.67397 59.5874 3.34597 58.9154C4.01797 58.2434 4.84997 57.9074 5.84197 57.9074C6.83397 57.9074 7.66597 58.2434 8.33797 58.9154C9.00997 59.5874 9.34597 60.4194 9.34597 61.4114C9.34597 62.3714 9.00997 63.1874 8.33797 63.8594C7.66597 64.5314 6.83397 64.8674 5.84197 64.8674C4.84997 64.8674 4.01797 64.5314 3.34597 63.8594C2.67397 63.1874 2.33797 62.3714 2.33797 61.4114Z" fill="white"/>
<path d="M36.2913 89.3747C36.2913 88.3827 36.6273 87.5507 37.2993 86.8787C37.9713 86.2067 38.8033 85.8707 39.7953 85.8707C40.7873 85.8707 41.6193 86.2067 42.2913 86.8787C42.9633 87.5507 43.2993 88.3827 43.2993 89.3747C43.2993 90.3347 42.9633 91.1507 42.2913 91.8227C41.6193 92.4947 40.7873 92.8307 39.7953 92.8307C38.8033 92.8307 37.9713 92.4947 37.2993 91.8227C36.6273 91.1507 36.2913 90.3347 36.2913 89.3747Z" fill="white"/>
<path d="M0.640234 89.3747C0.640234 88.3827 0.976234 87.5507 1.64823 86.8787C2.32023 86.2067 3.15223 85.8707 4.14423 85.8707C5.13623 85.8707 5.96823 86.2067 6.64023 86.8787C7.31223 87.5507 7.64824 88.3827 7.64824 89.3747C7.64824 90.3347 7.31223 91.1507 6.64023 91.8227C5.96823 92.4947 5.13623 92.8307 4.14423 92.8307C3.15223 92.8307 2.32023 92.4947 1.64823 91.8227C0.976234 91.1507 0.640234 90.3347 0.640234 89.3747Z" fill="white"/>
<path d="M2.33797 146.7C2.33797 145.708 2.67397 144.876 3.34597 144.204C4.01797 143.532 4.84997 143.196 5.84197 143.196C6.83397 143.196 7.66597 143.532 8.33797 144.204C9.00997 144.876 9.34597 145.708 9.34597 146.7C9.34597 147.66 9.00997 148.476 8.33797 149.148C7.66597 149.82 6.83397 150.156 5.84197 150.156C4.84997 150.156 4.01797 149.82 3.34597 149.148C2.67397 148.476 2.33797 147.66 2.33797 146.7Z" fill="white"/>
<path d="M106.664 89.3747C106.664 88.3827 107 87.5507 107.672 86.8787C108.344 86.2067 109.176 85.8707 110.168 85.8707C111.16 85.8707 111.992 86.2067 112.664 86.8787C113.336 87.5507 113.672 88.3827 113.672 89.3747C113.672 90.3347 113.336 91.1507 112.664 91.8227C111.992 92.4947 111.16 92.8307 110.168 92.8307C109.176 92.8307 108.344 92.4947 107.672 91.8227C107 91.1507 106.664 90.3347 106.664 89.3747Z" fill="white"/>
<path d="M0.640234 176.061C0.640234 175.069 0.976234 174.237 1.64823 173.565C2.32023 172.893 3.15223 172.557 4.14423 172.557C5.13623 172.557 5.96823 172.893 6.64023 173.565C7.31223 174.237 7.64824 175.069 7.64824 176.061C7.64824 177.021 7.31223 177.837 6.64023 178.509C5.96823 179.181 5.13623 179.517 4.14423 179.517C3.15223 179.517 2.32023 179.181 1.64823 178.509C0.976234 177.837 0.640234 177.021 0.640234 176.061Z" fill="white"/>
<path d="M0.640234 204.025C0.640234 203.033 0.976234 202.201 1.64823 201.529C2.32023 200.857 3.15223 200.521 4.14423 200.521C5.13623 200.521 5.96823 200.857 6.64023 201.529C7.31223 202.201 7.64824 203.033 7.64824 204.025C7.64824 204.985 7.31223 205.801 6.64023 206.473C5.96823 207.145 5.13623 207.481 4.14423 207.481C3.15223 207.481 2.32023 207.145 1.64823 206.473C0.976234 205.801 0.640234 204.985 0.640234 204.025Z" fill="white"/>
<path d="M0.640234 231.988C0.640234 230.996 0.976234 230.164 1.64823 229.492C2.32023 228.82 3.15223 228.484 4.14423 228.484C5.13623 228.484 5.96823 228.82 6.64023 229.492C7.31223 230.164 7.64824 230.996 7.64824 231.988C7.64824 232.948 7.31223 233.764 6.64023 234.436C5.96823 235.108 5.13623 235.444 4.14423 235.444C3.15223 235.444 2.32023 235.108 1.64823 234.436C0.976234 233.764 0.640234 232.948 0.640234 231.988Z" fill="white"/>
<path d="M35.4021 146.954C35.4021 145.962 35.7381 145.13 36.4101 144.458C37.0821 143.786 37.9141 143.45 38.9061 143.45C39.8981 143.45 40.7301 143.786 41.4021 144.458C42.0741 145.13 42.4101 145.962 42.4101 146.954C42.4101 147.914 42.0741 148.73 41.4021 149.402C40.7301 150.074 39.8981 150.41 38.9061 150.41C37.9141 150.41 37.0821 150.074 36.4101 149.402C35.7381 148.73 35.4021 147.914 35.4021 146.954Z" fill="white"/>
<path d="M35.4021 176.061C35.4021 175.069 35.7381 174.237 36.4101 173.565C37.0821 172.893 37.9141 172.557 38.9061 172.557C39.8981 172.557 40.7301 172.893 41.4021 173.565C42.0741 174.237 42.4101 175.069 42.4101 176.061C42.4101 177.021 42.0741 177.837 41.4021 178.509C40.7301 179.181 39.8981 179.517 38.9061 179.517C37.9141 179.517 37.0821 179.181 36.4101 178.509C35.7381 177.837 35.4021 177.021 35.4021 176.061Z" fill="white"/>
<path d="M35.4021 176.061C35.4021 175.069 35.7381 174.237 36.4101 173.565C37.0821 172.893 37.9141 172.557 38.9061 172.557C39.8981 172.557 40.7301 172.893 41.4021 173.565C42.0741 174.237 42.4101 175.069 42.4101 176.061C42.4101 177.021 42.0741 177.837 41.4021 178.509C40.7301 179.181 39.8981 179.517 38.9061 179.517C37.9141 179.517 37.0821 179.181 36.4101 178.509C35.7381 177.837 35.4021 177.021 35.4021 176.061Z" fill="white"/>
<path d="M35.4021 204.025C35.4021 203.033 35.7381 202.201 36.4101 201.529C37.0821 200.857 37.9141 200.521 38.9061 200.521C39.8981 200.521 40.7301 200.857 41.4021 201.529C42.0741 202.201 42.4101 203.033 42.4101 204.025C42.4101 204.985 42.0741 205.801 41.4021 206.473C40.7301 207.145 39.8981 207.481 38.9061 207.481C37.9141 207.481 37.0821 207.145 36.4101 206.473C35.7381 205.801 35.4021 204.985 35.4021 204.025Z" fill="white"/>
<path d="M35.4021 231.988C35.4021 230.996 35.7381 230.164 36.4101 229.492C37.0821 228.82 37.9141 228.484 38.9061 228.484C39.8981 228.484 40.7301 228.82 41.4021 229.492C42.0741 230.164 42.4101 230.996 42.4101 231.988C42.4101 232.948 42.0741 233.764 41.4021 234.436C40.7301 235.108 39.8981 235.444 38.9061 235.444C37.9141 235.444 37.0821 235.108 36.4101 234.436C35.7381 233.764 35.4021 232.948 35.4021 231.988Z" fill="white"/>
<path d="M71.9021 146.954C71.9021 145.962 72.2381 145.13 72.9101 144.458C73.5821 143.786 74.4141 143.45 75.4061 143.45C76.3981 143.45 77.2301 143.786 77.9021 144.458C78.5741 145.13 78.9101 145.962 78.9101 146.954C78.9101 147.914 78.5741 148.73 77.9021 149.402C77.2301 150.074 76.3981 150.41 75.4061 150.41C74.4141 150.41 73.5821 150.074 72.9101 149.402C72.2381 148.73 71.9021 147.914 71.9021 146.954Z" fill="white"/>
<path d="M71.9021 176.061C71.9021 175.069 72.2381 174.237 72.9101 173.565C73.5821 172.893 74.4141 172.557 75.4061 172.557C76.3981 172.557 77.2301 172.893 77.9021 173.565C78.5741 174.237 78.9101 175.069 78.9101 176.061C78.9101 177.021 78.5741 177.837 77.9021 178.509C77.2301 179.181 76.3981 179.517 75.4061 179.517C74.4141 179.517 73.5821 179.181 72.9101 178.509C72.2381 177.837 71.9021 177.021 71.9021 176.061Z" fill="white"/>
<path d="M71.9021 176.061C71.9021 175.069 72.2381 174.237 72.9101 173.565C73.5821 172.893 74.4141 172.557 75.4061 172.557C76.3981 172.557 77.2301 172.893 77.9021 173.565C78.5741 174.237 78.9101 175.069 78.9101 176.061C78.9101 177.021 78.5741 177.837 77.9021 178.509C77.2301 179.181 76.3981 179.517 75.4061 179.517C74.4141 179.517 73.5821 179.181 72.9101 178.509C72.2381 177.837 71.9021 177.021 71.9021 176.061Z" fill="white"/>
<path d="M71.9021 204.025C71.9021 203.033 72.2381 202.201 72.9101 201.529C73.5821 200.857 74.4141 200.521 75.4061 200.521C76.3981 200.521 77.2301 200.857 77.9021 201.529C78.5741 202.201 78.9101 203.033 78.9101 204.025C78.9101 204.985 78.5741 205.801 77.9021 206.473C77.2301 207.145 76.3981 207.481 75.4061 207.481C74.4141 207.481 73.5821 207.145 72.9101 206.473C72.2381 205.801 71.9021 204.985 71.9021 204.025Z" fill="white"/>
<path d="M71.9021 231.988C71.9021 230.996 72.2381 230.164 72.9101 229.492C73.5821 228.82 74.4141 228.484 75.4061 228.484C76.3981 228.484 77.2301 228.82 77.9021 229.492C78.5741 230.164 78.9101 230.996 78.9101 231.988C78.9101 232.948 78.5741 233.764 77.9021 234.436C77.2301 235.108 76.3981 235.444 75.4061 235.444C74.4141 235.444 73.5821 235.108 72.9101 234.436C72.2381 233.764 71.9021 232.948 71.9021 231.988Z" fill="white"/>
<path d="M105.896 146.7C105.896 145.708 106.232 144.876 106.904 144.204C107.576 143.532 108.408 143.196 109.4 143.196C110.392 143.196 111.224 143.532 111.896 144.204C112.568 144.876 112.904 145.708 112.904 146.7C112.904 147.66 112.568 148.476 111.896 149.148C111.224 149.82 110.392 150.156 109.4 150.156C108.408 150.156 107.576 149.82 106.904 149.148C106.232 148.476 105.896 147.66 105.896 146.7Z" fill="white"/>
<path d="M106.664 176.061C106.664 175.069 107 174.237 107.672 173.565C108.344 172.893 109.176 172.557 110.168 172.557C111.16 172.557 111.992 172.893 112.664 173.565C113.336 174.237 113.672 175.069 113.672 176.061C113.672 177.021 113.336 177.837 112.664 178.509C111.992 179.181 111.16 179.517 110.168 179.517C109.176 179.517 108.344 179.181 107.672 178.509C107 177.837 106.664 177.021 106.664 176.061Z" fill="white"/>
<path d="M106.664 176.061C106.664 175.069 107 174.237 107.672 173.565C108.344 172.893 109.176 172.557 110.168 172.557C111.16 172.557 111.992 172.893 112.664 173.565C113.336 174.237 113.672 175.069 113.672 176.061C113.672 177.021 113.336 177.837 112.664 178.509C111.992 179.181 111.16 179.517 110.168 179.517C109.176 179.517 108.344 179.181 107.672 178.509C107 177.837 106.664 177.021 106.664 176.061Z" fill="white"/>
<path d="M106.664 204.025C106.664 203.033 107 202.201 107.672 201.529C108.344 200.857 109.176 200.521 110.168 200.521C111.16 200.521 111.992 200.857 112.664 201.529C113.336 202.201 113.672 203.033 113.672 204.025C113.672 204.985 113.336 205.801 112.664 206.473C111.992 207.145 111.16 207.481 110.168 207.481C109.176 207.481 108.344 207.145 107.672 206.473C107 205.801 106.664 204.985 106.664 204.025Z" fill="white"/>
<path d="M106.664 231.988C106.664 230.996 107 230.164 107.672 229.492C108.344 228.82 109.176 228.484 110.168 228.484C111.16 228.484 111.992 228.82 112.664 229.492C113.336 230.164 113.672 230.996 113.672 231.988C113.672 232.948 113.336 233.764 112.664 234.436C111.992 235.108 111.16 235.444 110.168 235.444C109.176 235.444 108.344 235.108 107.672 234.436C107 233.764 106.664 232.948 106.664 231.988Z" fill="white"/>
</svg>
