<svg width="123" height="21" viewBox="0 0 123 21" fill="none" xmlns="http://www.w3.org/2000/svg">
<path d="M9.37412 0.24292L11.4313 7.2141H18.0887L12.7028 11.5225L14.76 18.4937L9.37412 14.1853L3.98822 18.4937L6.04545 11.5225L0.659546 7.2141H7.31689L9.37412 0.24292Z" fill="#FFAF37"/>
<path d="M35.4535 0.24292L37.5108 7.2141H44.1681L38.7822 11.5225L40.8394 18.4937L35.4535 14.1853L30.0676 18.4937L32.1249 11.5225L26.739 7.2141H33.3963L35.4535 0.24292Z" fill="#FFAF37"/>
<path d="M61.533 0.24292L63.5902 7.2141H70.2475L64.8616 11.5225L66.9189 18.4937L61.533 14.1853L56.1471 18.4937L58.2043 11.5225L52.8184 7.2141H59.4757L61.533 0.24292Z" fill="#FFAF37"/>
<path d="M87.6124 0.24292L89.6696 7.2141H96.327L90.9411 11.5225L92.9983 18.4937L87.6124 14.1853L82.2265 18.4937L84.2837 11.5225L78.8978 7.2141H85.5552L87.6124 0.24292Z" fill="#FFAF37"/>
<path d="M113.692 0.24292L115.749 7.2141H122.406L117.02 11.5225L119.078 18.4937L113.692 14.1853L108.306 18.4937L110.363 11.5225L104.977 7.2141H111.635L113.692 0.24292Z" fill="#FFAF37"/>
</svg>
